<?xml version="1.0" standalone="yes"?>

	<svg
		xmlns="http://www.w3.org/2000/svg"
		xmlns:xlink="http://www.w3.org/1999/xlink"
		xmlns:svg="http://www.w3.org/2000/svg"
		xmlns:dc="http://purl.org/dc/elements/1.1/"
		xmlns:cc="http://web.resource.org/cc/"
		xmlns:rdf="http://www.w3.org/1999/02/22-rdf-syntax-ns#"
	 width="1280" height="736">
<path style="fill:#cc9b24; stroke:none;" d="M0 0L0 388C22.3705 385.263 46.4521 387.667 69 387.667L205.667 387.667L267.667 387.667C275.622 387.667 287.8 385.355 295.286 388.038C304.738 391.425 314.432 409.553 321.17 417C339.635 437.409 359.867 456.28 381 473.92C435.668 519.55 495.895 558.194 558 592.86C582.682 606.638 609.131 625.058 636 634.03C645.098 637.068 654.989 627.042 663 623.954C690.352 613.408 716.453 597.858 742 583.424C823.547 537.349 908.767 486.072 972.17 416C992.625 393.394 1020.28 367.286 1031 338C1039.7 343.815 1047.84 342.667 1058 342.667L1101.33 342.667L1220 342.667C1239.5 342.667 1260.7 340.31 1280 343L1280 0L0 0z"/>
<path style="fill:#cc6c21; stroke:none;" d="M275 115L276 115C283.472 93.0563 297.089 81.4744 313 65.9854C354.922 25.1743 408.604 15 465 15C509.33 15 555.702 23.7161 592 50.8951C616.023 68.8831 636.266 96.5466 646.301 125C652.544 142.702 654.834 161.775 659 180L660 180L669 134L668 134L660 170C653.284 152.198 651.905 132.201 646.1 114C638.106 88.935 616.863 63.1273 596 47.7562C548.537 12.7874 482.958 5.99969 426 12.8156C396.912 16.2963 367.878 21.768 342 36.5787C315.061 51.9969 279.935 82.077 275 115M675 115L676 115C683.472 93.0563 697.089 81.4744 713 65.9854C754.594 25.4934 807.979 15 864 15C908.055 15 953.421 23.2148 990 49.4283C1043.06 87.4557 1059.3 153.103 1059 215C1058.73 271.86 1032.48 323.526 998.344 367.129C939.682 442.062 863.229 498.164 782 547C753.233 564.295 723.972 581.117 694 596.248C685.089 600.746 671.167 612.232 661 612.219C653.031 612.209 641.157 602.825 634 599.247C608.872 586.683 584.392 572.774 560 558.85C509.44 529.987 460.755 497.486 415 461.49C405.087 453.691 396.66 444.158 386.985 436.299C347.011 403.823 304.792 360.251 284 312C282.032 319.178 291.896 331.769 295.35 338.09C309.207 363.445 327.566 385.282 346.424 407C407.8 477.684 491.463 530.348 572 576.421C591.437 587.541 611.314 597.813 631 608.46C638.746 612.649 650.07 621.197 659 621.682C667.843 622.163 680.355 612.462 688 608.448C712.103 595.794 735.614 582.023 759.004 568.285C861.525 508.068 969.108 437.694 1029.57 332C1078.03 247.29 1081.3 115.06 998 49.2863C975.909 31.8434 949.055 22.4272 922 16.0393C902.815 11.5095 881.614 11 862 11C811.468 11 758.173 19.5182 718 52.9205C700.731 67.2793 678.485 91.7484 675 115z"/>
<path style="fill:#c93b1d; stroke:none;" d="M660 180C652.763 163.649 652.109 143.273 646.958 126C638.333 97.0815 616.004 67.7505 592 50.1552C570.461 34.3666 545.522 26.043 520 20.1566C448.849 3.74622 364.94 15.6459 311 66.9599C297.018 80.2615 286.554 89.9926 278.309 108C250.526 168.677 251.296 244.201 278.5 304.999C290.962 332.852 311.744 359.896 331.427 383C396.517 459.398 483.378 513.864 569 564.603C590.447 577.313 612.705 589.099 635 600.247C642.053 603.773 653.082 612.572 661 612.574C665.445 612.576 670.148 609.173 674 607.247C684.101 602.196 694.163 596.969 704 591.424C736.466 573.125 769.386 555.878 801 536.05C924.998 458.281 1073.53 344.586 1057.17 181C1055.21 161.369 1053.01 140.502 1045.55 122C1025.46 72.2258 984.896 36.1079 932.961 22.25C909.786 16.0662 884.893 15 861 15C837.451 15 810.757 14.8517 788.039 21.9352C758.178 31.2463 732.904 46.8441 710 67.9066C704.657 72.8197 698.169 76.5657 693.376 82.0895C671.467 107.336 664.236 147.976 660 180z"/>
<path style="fill:#d2b027; stroke:none;" d="M1031 338C1011.77 374.134 982.727 406.398 953 434.09C906.988 476.95 856.633 514.169 803 547C807.364 556.054 823.305 552.667 832 552.667L918.667 552.667L1160.67 552.667L1239.33 552.667C1252.59 552.667 1266.87 551.17 1280 553L1280 409C1280 388.695 1284.74 361.432 1279 342C1260.28 344.29 1240.2 342.333 1221.33 342.333L1108 342.333C1084.27 342.333 1052.33 347.739 1031 338M1 387C-2.3577 398.359 0 413.167 0 425L0 502C0 517.633 -3.4283 538.019 1 553C39.4863 548.291 81.1986 552.667 120 552.667L358.667 552.667L447.333 552.667C460.159 552.667 476.658 555.403 489 552C475.694 539.501 457.075 530.383 442 519.975C412.739 499.771 383.722 477.556 358 452.961C342.823 438.448 328.033 423.793 314.155 408C309.21 402.372 303.156 390.568 296.095 387.745C289.708 385.191 278.545 387.333 271.667 387.333L215.667 387.333L72.3333 387.333C49.1795 387.333 23.9154 390.194 1 387z"/>
<path style="fill:#d5bc28; stroke:none;" d="M0 552L0 736L1280 736L1280 611C1280 593.031 1284.09 569.207 1279 552C1260.28 554.29 1240.2 552.333 1221.33 552.333L1108 552.333L908.667 552.333C876.084 552.333 842.48 554.74 809.999 552.311C806.929 552.081 804.96 549.265 801.985 549.105C798.05 548.893 793.267 553.274 790 555.15C779.942 560.924 769.964 566.869 760 572.799C729.69 590.839 696.361 612.095 663 623.595C655.487 626.185 648.089 633.882 640 634.397C629.862 635.042 614.849 622.704 606 618.248C578.876 604.59 551.896 589.821 526 573.939C515.898 567.744 500.117 553.514 488.326 552.326C448.48 548.31 406.079 552.333 366 552.333L116.667 552.333L40 552.333C26.9582 552.333 12.9143 553.8 0 552z"/>
<path style="fill:#d9bd40; stroke:none;" d="M897 628L910 654C913.632 651.6 927.782 643.524 926.11 638.278C925.285 635.691 921.164 635.617 918.999 635.247C911.087 633.893 904.602 629.739 897 628M828 674L834 676C841.129 663.208 853.352 650.854 856 636C846.884 636 821.421 628.795 818.993 643.093C817.353 652.752 828.39 663.743 828 674z"/>
</svg>
